<svg xmlns="http://www.w3.org/2000/svg" xmlns:xlink="http://www.w3.org/1999/xlink" viewBox="0 0 213.74 635.71"><defs><style>.cls-1{fill:url(#linear-gradient);}.cls-2{mask:url(#mask);}.cls-3{fill:url(#linear-gradient-2);}.cls-4{fill:url(#linear-gradient-3);}</style><linearGradient id="linear-gradient" x1="73.81" y1="88.23" x2="73.81" y2="647.27" gradientUnits="userSpaceOnUse"><stop offset="0" stop-color="#fff"/><stop offset="0.18" stop-color="#fcfcfc"/><stop offset="0.31" stop-color="#f3f3f3"/><stop offset="0.43" stop-color="#e3e3e3"/><stop offset="0.54" stop-color="#ccc"/><stop offset="0.64" stop-color="#afafaf"/><stop offset="0.74" stop-color="#8b8b8b"/><stop offset="0.83" stop-color="#606060"/><stop offset="0.92" stop-color="#303030"/><stop offset="1"/></linearGradient><mask id="mask" x="-43.24" y="88.23" width="234.09" height="559.04" maskUnits="userSpaceOnUse"><rect class="cls-1" x="-43.24" y="88.23" width="234.09" height="559.04"/></mask><linearGradient id="linear-gradient-2" x1="-101.31" y1="534.4" x2="232.04" y2="201.06" gradientUnits="userSpaceOnUse"><stop offset="0" stop-color="#487b02"/><stop offset="1" stop-color="#184000"/></linearGradient><linearGradient id="linear-gradient-3" x1="84.46" y1="60.89" x2="213.74" y2="60.89" xlink:href="#linear-gradient-2"/></defs><g id="Layer_2" data-name="Layer 2"><g id="Layer_1-2" data-name="Layer 1"><g id="Stem"><g class="cls-2"><path class="cls-3" d="M22.12,632.17,0,635.71S0,432.4,33.82,297.65c12-47.83,53.16-160.13,79.55-199.12L135,104c-27.43,37.27-65.64,149.76-79,196.54C22.37,417.87,22.12,632.17,22.12,632.17Z"/></g><path class="cls-4" d="M209.94,82.46c-12,26.45-56.24,49.62-89.53,34.54s-43-62.72-31-89.17,48.7-35.66,82-20.58S221.92,56,209.94,82.46Z"/></g></g></g></svg>